<svg width="1386" height="1303" viewBox="0 0 1386 1303" fill="none" xmlns="http://www.w3.org/2000/svg">
<g clip-path="url(#clip0_53_21)">
<path d="M1747.84 -77L1864.64 125.31L-289.196 1368.83L-406 1166.52L1747.84 -77Z" fill="#ff4d6d"/>
<path d="M1535.71 -6.53328C1542.49 -10.4461 1551.16 -8.12405 1555.07 -1.34688C1558.98 5.4303 1556.66 14.0962 1549.88 18.009L742.946 483.894C736.169 487.807 727.503 485.485 723.59 478.708C719.677 471.931 721.999 463.265 728.776 459.352L1535.71 -6.53328Z" fill="#ff4d6d"/>
<path d="M1211.57 524.877C1219.22 520.464 1228.99 523.083 1233.4 530.726C1237.82 538.369 1235.2 548.142 1227.55 552.555L-205.073 1379.68C-212.716 1384.1 -222.49 1381.48 -226.902 1373.83C-231.315 1366.19 -228.697 1356.42 -221.053 1352L1211.57 524.877Z" fill="#ff4d6d"/>
</g>
<defs>
<clipPath id="clip0_53_21">
<rect width="1386" height="1303" fill="white"/>
</clipPath>
</defs>
</svg>
